<?xml version="1.0" encoding="utf-8"?>
<!-- Generator: Adobe Illustrator 22.0.1, SVG Export Plug-In . SVG Version: 6.00 Build 0)  -->
<svg version="1.1" id="Layer_1" xmlns="http://www.w3.org/2000/svg" xmlns:xlink="http://www.w3.org/1999/xlink" x="0px" y="0px"
	 viewBox="0 0 639.1 192" style="enable-background:new 0 0 639.1 192;" xml:space="preserve">
<style type="text/css">
	.st0{fill:#214E9C;}
</style>
<g>
	<path class="st0" d="M255.1,94.4c0.5,2.2,0.8,5.1,0.8,8.7v31.8h-10.5l-1-4.4h-0.9c-1.4,1.4-3,2.6-5,3.5c-2.9,1.3-6.2,2-9.8,2
		c-3.9,0-7.4-0.7-10.3-2.1c-2.9-1.4-5.2-3.4-6.7-5.9c-1.6-2.6-2.3-5.6-2.3-9c0-6.5,2.6-11,7.9-13.6c1.7-0.8,3.7-1.4,5.9-1.8
		c2.3-0.4,5.3-0.5,9.1-0.5h12.1c0-2.5-0.3-4.5-0.7-5.9c-0.4-1.5-1.1-2.6-2.1-3.5c-0.9-0.8-2.2-1.4-3.7-1.9c-1.5-0.4-3.2-0.6-5-0.6
		c-2.6,0-5.2,0.5-7.8,1.6c-2.6,1.1-5.1,2.7-7.4,4.8l-6.9-7.7c3.3-2.7,6.9-4.8,10.6-6.3c3.8-1.4,7.6-2.2,11.5-2.2
		c4.6,0,8.5,0.6,11.8,1.8c3.3,1.2,5.9,3,7.7,5.4C253.7,90.3,254.6,92.2,255.1,94.4z M243.6,118.4c0.5-1.7,0.7-3.7,0.8-6.1h-13.9
		c-1.8,0-3.3,0.1-4.4,0.4c-1.1,0.3-2.1,0.7-3,1.5c-0.7,0.6-1.3,1.3-1.6,2c-0.3,0.7-0.5,1.7-0.5,2.8c0,2.3,0.8,4.2,2.5,5.6
		c1.6,1.4,4,2.1,7.2,2.1c2.1,0,4-0.3,5.8-1c1.8-0.7,3.3-1.6,4.6-2.9C242.3,121.6,243.2,120.1,243.6,118.4z"/>
	<path class="st0" d="M267.3,82.4h10.9l0.6,4h0.9c1.6-1.5,3.6-2.7,6.1-3.6c2.5-0.9,5.3-1.4,8.3-1.4c5.3,0,9.5,1.3,12.8,3.9
		c2.5,2,4.1,4.6,5,7.6c0.9,3.1,1.3,6.8,1.3,11.2v30.8h-11.4v-28.8c0-3.3-0.2-5.9-0.7-7.7c-0.4-1.9-1.2-3.4-2.4-4.6
		c-2-1.9-4.7-2.9-8.2-2.9c-4.1,0-7.2,1.3-9.2,3.9c-1,1.3-1.7,2.9-2.1,4.8c-0.4,1.9-0.6,4.4-0.6,7.5v27.8h-11.5V82.4z"/>
	<path class="st0" d="M366,94.4c0.5,2.2,0.8,5.1,0.8,8.7v31.8h-10.5l-1-4.4h-0.9c-1.4,1.4-3,2.6-5,3.5c-2.9,1.3-6.2,2-9.8,2
		c-3.9,0-7.4-0.7-10.3-2.1c-2.9-1.4-5.2-3.4-6.7-5.9c-1.6-2.6-2.3-5.6-2.3-9c0-6.5,2.6-11,7.9-13.6c1.7-0.8,3.7-1.4,5.9-1.8
		c2.3-0.4,5.3-0.5,9.1-0.5h12.1c0-2.5-0.3-4.5-0.7-5.9s-1.1-2.6-2.1-3.5c-0.9-0.8-2.2-1.4-3.7-1.9s-3.2-0.6-5-0.6
		c-2.6,0-5.2,0.5-7.8,1.6c-2.6,1.1-5.1,2.7-7.4,4.8l-6.9-7.7c3.3-2.7,6.9-4.8,10.6-6.3c3.8-1.4,7.6-2.2,11.5-2.2
		c4.6,0,8.5,0.6,11.8,1.8s5.9,3,7.7,5.4C364.5,90.3,365.4,92.2,366,94.4z M354.4,118.4c0.5-1.7,0.7-3.7,0.8-6.1h-13.9
		c-1.8,0-3.3,0.1-4.4,0.4c-1.1,0.3-2.1,0.7-3,1.5c-0.7,0.6-1.3,1.3-1.6,2c-0.3,0.7-0.5,1.7-0.5,2.8c0,2.3,0.8,4.2,2.5,5.6
		c1.6,1.4,4,2.1,7.2,2.1c2.1,0,4-0.3,5.8-1c1.8-0.7,3.3-1.6,4.6-2.9C353.1,121.6,354,120.1,354.4,118.4z"/>
	<path class="st0" d="M397.2,134.6c-2.5-0.9-4.7-2.1-6.5-3.7h-1l-1.1,4h-10.4V60.7h11.5v25.8h1c1.8-1.6,3.9-2.9,6.4-3.8
		c2.5-0.9,5.2-1.4,8.2-1.4c4.7,0,8.8,1.1,12.2,3.2c3.4,2.2,6.1,5.3,7.9,9.4c1.8,4.1,2.7,9,2.7,14.7c0,5.7-0.9,10.6-2.7,14.7
		c-1.8,4.1-4.5,7.2-7.9,9.4c-3.4,2.2-7.5,3.2-12.3,3.2C402.5,135.9,399.8,135.5,397.2,134.6z M413,121.7c2.4-3,3.7-7.4,3.7-13
		s-1.2-10-3.7-13c-2.4-3-5.8-4.5-10.2-4.5c-2.9,0-5.5,0.7-7.6,2.1c-2.1,1.4-3.7,3.4-4.8,6c-1.1,2.6-1.7,5.8-1.7,9.5
		c0,3.7,0.6,6.9,1.7,9.5c1.1,2.6,2.8,4.6,4.9,6s4.6,2.1,7.5,2.1C407.2,126.2,410.6,124.7,413,121.7z"/>
	<path class="st0" d="M439.6,133.1c-1-1-1.8-2.3-2.3-4.1c-0.5-1.8-0.7-4.4-0.7-7.8V60.7h11.6v57.8c0,2.2,0.1,3.7,0.2,4.6
		c0.1,0.9,0.4,1.5,0.7,1.9c0.7,0.8,1.8,1.2,3.4,1.2c1.1,0,2.1-0.1,3.1-0.4l1.7,8.6c-1.3,0.4-2.7,0.8-4.3,1.1s-3.2,0.4-4.5,0.4
		C444.5,135.9,441.6,135,439.6,133.1z"/>
	<path class="st0" d="M471,132.4c-4-2.3-7-5.5-9.1-9.7c-2.1-4.1-3.2-8.9-3.2-14.3c0-5.4,1.1-10.1,3.2-14.2c2.1-4.1,5.2-7.3,9.1-9.5
		c4-2.3,8.6-3.4,13.8-3.4c5.2,0,9.8,1.1,13.8,3.4c4,2.3,7,5.4,9.1,9.5c2.1,4.1,3.2,8.8,3.2,14.2c0,5.4-1.1,10.2-3.2,14.3
		c-2.1,4.1-5.2,7.4-9.1,9.7c-4,2.3-8.5,3.4-13.8,3.4C479.6,135.9,475,134.7,471,132.4z M493,123.9c2.2-1.5,3.8-3.6,4.8-6.3
		c1.1-2.7,1.6-5.7,1.6-9.1c0-5.2-1.2-9.4-3.7-12.6c-2.4-3.2-6.1-4.8-10.9-4.8c-4.9,0-8.5,1.6-11,4.8c-2.5,3.2-3.7,7.4-3.7,12.7
		c0,3.4,0.5,6.5,1.6,9.1c1.1,2.7,2.7,4.8,4.9,6.3c2.2,1.5,4.9,2.3,8.2,2.3C488.1,126.2,490.8,125.4,493,123.9z"/>
	<path class="st0" d="M526.3,132.3c-3.7-2.4-6.5-5.7-8.5-9.8c-2-4.1-3-8.8-3-13.9c0-5.1,1-9.7,2.9-13.8c2-4.1,4.8-7.4,8.5-9.8
		c3.7-2.4,8.1-3.6,13.1-3.6c5.4,0,10.1,1.4,14.1,4.2s6.7,6.7,8.3,11.7l-10.6,3.5c-0.9-2.9-2.3-5.2-4.3-6.9c-2-1.7-4.5-2.6-7.4-2.6
		s-5.4,0.8-7.3,2.4c-1.9,1.6-3.4,3.7-4.3,6.3c-0.9,2.6-1.3,5.5-1.3,8.7c0,3.2,0.4,6.1,1.3,8.7c0.9,2.6,2.3,4.7,4.2,6.3
		c1.9,1.6,4.4,2.4,7.3,2.4c2.9,0,5.4-0.9,7.4-2.6c2-1.7,3.4-4,4.2-6.9l10.5,3.3c-1,3.3-2.6,6.2-4.7,8.6c-2.1,2.4-4.6,4.3-7.6,5.6
		c-3,1.3-6.3,1.9-9.9,1.9C534.3,135.9,530,134.7,526.3,132.3z"/>
	<path class="st0" d="M569,60.7h11.6v44.7h0.3l21.4-23h14.6L598.7,102l20.6,32.8h-13.5l-15.5-25h-0.4l-9.3,9.5v15.5H569V60.7z"/>
</g>
<path class="st0" d="M78.2,61.9l27.3-47.2l42.9,74.2l42.9,74.2h-1.3C154.8,116.8,106.7,80.9,78.2,61.9z"/>
<path class="st0" d="M78.2,61.9l27.3-47.2l42.9,74.2l42.9,74.2h-1.3C154.8,116.8,106.7,80.9,78.2,61.9z"/>
<path class="st0" d="M76.8,64.7c28.6,19,76.6,54.9,111.6,101.2h-1.7c-87.4-62.6-146.8-22-165-5.8l39.5-68.4L76.8,64.7z"/>
<path class="st0" d="M76.8,64.7c28.6,19,76.6,54.9,111.6,101.2h-1.7c-87.4-62.6-146.8-22-165-5.8l39.5-68.4L76.8,64.7z"/>
<path class="st0" d="M186.8,168.6h-82.7H18.4l3.4-5.8C39.9,146.6,99.3,106,186.8,168.6z"/>
<rect x="168.7" y="-160.2" class="st0" width="96.6" height="96.6"/>
</svg>
