<?xml version="1.0" encoding="utf-8"?>
<!-- Generator: Adobe Illustrator 22.0.1, SVG Export Plug-In . SVG Version: 6.00 Build 0)  -->
<svg version="1.1" id="Layer_1" xmlns="http://www.w3.org/2000/svg" xmlns:xlink="http://www.w3.org/1999/xlink" x="0px" y="0px"
	 viewBox="0 0 639.1 192" style="enable-background:new 0 0 639.1 192;" xml:space="preserve">
<style type="text/css">
	.st0{fill:#214E9C;}
</style>
<rect x="168.7" y="-160.2" class="st0" width="96.6" height="96.6"/>
<g>
	<path class="st0" d="M245,87.6c0.5,2.2,0.8,5.1,0.8,8.7v31.6h-10.4l-1-4.4h-0.9c-1.3,1.4-3,2.6-4.9,3.5c-2.9,1.3-6.1,2-9.7,2
		c-3.9,0-7.3-0.7-10.2-2.1c-2.9-1.4-5.1-3.3-6.7-5.9c-1.6-2.6-2.3-5.5-2.3-8.9c0-6.5,2.6-11,7.9-13.5c1.7-0.8,3.7-1.4,5.9-1.8
		c2.2-0.4,5.3-0.5,9-0.5h12c0-2.5-0.3-4.4-0.7-5.9c-0.4-1.5-1.1-2.6-2.1-3.5c-0.9-0.8-2.2-1.4-3.6-1.9c-1.5-0.4-3.2-0.6-5-0.6
		c-2.6,0-5.1,0.5-7.7,1.6c-2.6,1.1-5.1,2.7-7.4,4.8l-6.9-7.7c3.3-2.7,6.8-4.8,10.6-6.3c3.8-1.4,7.6-2.2,11.5-2.2
		c4.5,0,8.5,0.6,11.7,1.8c3.3,1.2,5.8,3,7.7,5.4C243.6,83.5,244.5,85.4,245,87.6z M233.5,111.5c0.5-1.7,0.7-3.7,0.8-6h-13.8
		c-1.8,0-3.2,0.1-4.4,0.4c-1.1,0.3-2.1,0.7-3,1.5c-0.7,0.6-1.3,1.3-1.6,2c-0.3,0.7-0.5,1.7-0.5,2.8c0,2.3,0.8,4.2,2.4,5.6
		c1.6,1.4,4,2.1,7.2,2.1c2.1,0,4-0.3,5.8-1c1.8-0.7,3.3-1.6,4.6-2.9C232.2,114.7,233.1,113.2,233.5,111.5z"/>
	<path class="st0" d="M257.1,75.7H268l0.6,4h0.9c1.6-1.5,3.6-2.7,6.1-3.6c2.5-0.9,5.3-1.4,8.3-1.4c5.2,0,9.5,1.3,12.7,3.9
		c2.4,2,4.1,4.5,5,7.6c0.9,3,1.3,6.7,1.3,11.1v30.7h-11.3V99.3c0-3.3-0.2-5.8-0.7-7.7c-0.4-1.9-1.2-3.4-2.4-4.5
		c-2-1.9-4.7-2.9-8.2-2.9c-4.1,0-7.1,1.3-9.1,3.9c-1,1.3-1.7,2.9-2.1,4.8c-0.4,1.9-0.6,4.4-0.6,7.5v27.6h-11.4V75.7z"/>
	<path class="st0" d="M355.2,87.6c0.5,2.2,0.8,5.1,0.8,8.7v31.6h-10.4l-1-4.4h-0.9c-1.3,1.4-3,2.6-4.9,3.5c-2.9,1.3-6.1,2-9.7,2
		c-3.9,0-7.3-0.7-10.2-2.1c-2.9-1.4-5.1-3.3-6.7-5.9c-1.6-2.6-2.3-5.5-2.3-8.9c0-6.5,2.6-11,7.9-13.5c1.7-0.8,3.7-1.4,5.9-1.8
		c2.2-0.4,5.3-0.5,9-0.5h12c0-2.5-0.3-4.4-0.7-5.9c-0.4-1.5-1.1-2.6-2.1-3.5c-0.9-0.8-2.2-1.4-3.6-1.9c-1.5-0.4-3.2-0.6-5-0.6
		c-2.6,0-5.1,0.5-7.7,1.6c-2.6,1.1-5.1,2.7-7.4,4.8l-6.9-7.7c3.3-2.7,6.8-4.8,10.6-6.3c3.8-1.4,7.6-2.2,11.5-2.2
		c4.5,0,8.5,0.6,11.7,1.8c3.3,1.2,5.8,3,7.7,5.4C353.8,83.5,354.7,85.4,355.2,87.6z M343.8,111.5c0.5-1.7,0.7-3.7,0.8-6h-13.8
		c-1.8,0-3.2,0.1-4.4,0.4c-1.1,0.3-2.1,0.7-3,1.5c-0.7,0.6-1.3,1.3-1.6,2c-0.3,0.7-0.5,1.7-0.5,2.8c0,2.3,0.8,4.2,2.4,5.6
		c1.6,1.4,4,2.1,7.2,2.1c2.1,0,4-0.3,5.8-1c1.8-0.7,3.3-1.6,4.6-2.9C342.5,114.7,343.3,113.2,343.8,111.5z"/>
	<path class="st0" d="M386.4,127.6c-2.5-0.9-4.7-2.1-6.5-3.7h-1l-1.1,3.9h-10.3V54.1h11.4v25.7h1c1.8-1.6,3.9-2.9,6.4-3.8
		c2.5-0.9,5.2-1.4,8.2-1.4c4.7,0,8.8,1.1,12.2,3.2c3.4,2.1,6,5.2,7.9,9.3c1.8,4.1,2.7,8.9,2.7,14.6c0,5.7-0.9,10.5-2.7,14.6
		c-1.8,4.1-4.4,7.2-7.9,9.3c-3.4,2.1-7.5,3.2-12.2,3.2C391.6,128.9,388.9,128.5,386.4,127.6z M402.1,114.8c2.4-3,3.6-7.3,3.6-13
		s-1.2-10-3.6-13c-2.4-3-5.8-4.5-10.1-4.5c-2.9,0-5.4,0.7-7.5,2.1c-2.1,1.4-3.7,3.4-4.8,6c-1.1,2.6-1.7,5.8-1.7,9.4
		c0,3.7,0.6,6.9,1.7,9.5s2.7,4.6,4.8,6c2.1,1.4,4.6,2,7.5,2C396.3,119.3,399.6,117.8,402.1,114.8z"/>
	<path class="st0" d="M428.5,126.1c-1-1-1.8-2.3-2.3-4.1c-0.5-1.8-0.7-4.3-0.7-7.8V54.1h11.5v57.5c0,2.2,0.1,3.7,0.2,4.6
		c0.1,0.9,0.4,1.5,0.7,1.9c0.7,0.8,1.8,1.2,3.3,1.2c1.1,0,2.1-0.1,3.1-0.4l1.6,8.6c-1.3,0.4-2.7,0.8-4.3,1.1
		c-1.6,0.3-3.1,0.4-4.5,0.4C433.4,128.9,430.5,128,428.5,126.1z"/>
	<path class="st0" d="M459.8,125.5c-3.9-2.3-7-5.5-9.1-9.6c-2.1-4.1-3.2-8.9-3.2-14.2c0-5.3,1.1-10,3.2-14.1
		c2.1-4.1,5.2-7.3,9.1-9.5c3.9-2.2,8.5-3.4,13.8-3.4c5.2,0,9.8,1.1,13.7,3.4c3.9,2.2,7,5.4,9.1,9.5c2.1,4.1,3.2,8.8,3.2,14.1
		c0,5.4-1.1,10.1-3.2,14.2c-2.1,4.1-5.2,7.3-9.1,9.6c-3.9,2.3-8.5,3.4-13.7,3.4C468.3,128.9,463.7,127.8,459.8,125.5z M481.6,117
		c2.2-1.5,3.8-3.6,4.8-6.3c1.1-2.6,1.6-5.7,1.6-9.1c0-5.2-1.2-9.4-3.6-12.6c-2.4-3.2-6-4.8-10.8-4.8c-4.8,0-8.5,1.6-10.9,4.7
		c-2.4,3.2-3.7,7.4-3.7,12.6c0,3.4,0.5,6.4,1.6,9.1c1,2.6,2.7,4.7,4.8,6.3c2.2,1.5,4.9,2.3,8.2,2.3
		C476.8,119.3,479.5,118.5,481.6,117z"/>
	<path class="st0" d="M514.8,125.3c-3.7-2.4-6.5-5.6-8.5-9.7c-2-4.1-2.9-8.7-2.9-13.8c0-5,1-9.6,2.9-13.8c1.9-4.1,4.8-7.4,8.4-9.8
		c3.7-2.4,8-3.6,13-3.6c5.4,0,10.1,1.4,14,4.2c3.9,2.8,6.7,6.7,8.3,11.6l-10.5,3.5c-0.8-2.9-2.3-5.2-4.3-6.9c-2-1.7-4.5-2.5-7.4-2.5
		s-5.3,0.8-7.3,2.4c-1.9,1.6-3.3,3.7-4.2,6.3c-0.9,2.6-1.3,5.5-1.3,8.7c0,3.2,0.4,6,1.3,8.6c0.9,2.6,2.3,4.7,4.2,6.3
		c1.9,1.6,4.3,2.4,7.3,2.4c2.9,0,5.4-0.9,7.4-2.6c2-1.7,3.4-4,4.2-6.8l10.4,3.2c-1,3.3-2.5,6.1-4.6,8.6c-2.1,2.4-4.6,4.3-7.6,5.5
		c-3,1.3-6.3,1.9-9.8,1.9C522.8,128.9,518.4,127.7,514.8,125.3z"/>
	<path class="st0" d="M557.3,54.1h11.5v44.5h0.3l21.2-22.8H605l-18.2,19.5l20.5,32.7h-13.4L578.4,103H578l-9.2,9.5v15.4h-11.5V54.1z
		"/>
</g>
<g>
	<polygon class="st0" points="59.4,153.8 59.4,153.9 59.4,153.8 	"/>
	<polygon class="st0" points="140.1,153.9 140.1,153.8 140.1,153.8 	"/>
	<path class="st0" d="M139.7,153.8h0.5L99.8,43.6L59.4,153.8h0.5l-0.2,0.5l0,0.1c1,0.8,2.1,1.5,3.2,2.2c0.5,0.4,1,0.7,1.6,1
		c0.5,0.3,1.1,0.7,1.6,1c1.1,0.6,2.1,1.2,3.2,1.7c0.4,0.2,0.8,0.4,1.2,0.6c0.7,0.3,1.4,0.6,2,0.9c1,0.5,2.1,0.9,3.2,1.3
		c0.9,0.4,1.9,0.7,2.8,1h0.4v0.1c1.1,0.4,2.1,0.7,3.2,0.9c1.1,0.3,2.1,0.6,3.2,0.8c1.1,0.2,2.1,0.4,3.2,0.6c1.1,0.2,2.1,0.3,3.2,0.5
		c1.1,0.1,2.1,0.2,3.2,0.3c0.4,0,0.9,0.1,1.3,0.1h7c0.4,0,0.9,0,1.3-0.1c1.1-0.1,2.1-0.2,3.2-0.3c1.1-0.1,2.1-0.3,3.2-0.5
		c1.1-0.2,2.2-0.4,3.2-0.6c1.1-0.2,2.1-0.5,3.2-0.8c1.1-0.3,2.1-0.6,3.2-0.9v-0.1h0.4c1-0.3,1.9-0.7,2.8-1c1.1-0.4,2.2-0.8,3.2-1.3
		c0.7-0.3,1.4-0.6,2-0.9c0.4-0.2,0.8-0.4,1.2-0.6c1.1-0.5,2.2-1.1,3.2-1.7c0.5-0.3,1.1-0.6,1.6-1c0.5-0.3,1-0.6,1.6-1
		c1.1-0.7,2.2-1.4,3.2-2.2l0-0.1L139.7,153.8z"/>
	<path class="st0" d="M87.2,36.9L92,24.5l-4.8,7.9v0c-31.5,5.9-55.4,33.6-55.4,66.8c0,16.3,5.8,31.2,15.3,43l-2.6,9.9l3.6-8.7
		c0,0,0,0.1,0.1,0.1l0.9-2.4l0,0h0L87.2,36.9z"/>
	<path class="st0" d="M112.3,36.9l-4.8-12.5l4.8,7.9v0c31.5,5.9,55.4,33.6,55.4,66.8c0,16.3-5.8,31.2-15.3,43l2.6,9.9l-3.6-8.7
		c0,0,0,0.1-0.1,0.1l-0.9-2.4l0,0h0L112.3,36.9z"/>
</g>
</svg>
