<?xml version="1.0" encoding="utf-8"?>
<!-- Generator: Adobe Illustrator 22.0.1, SVG Export Plug-In . SVG Version: 6.00 Build 0)  -->
<svg version="1.1" id="Layer_1" xmlns="http://www.w3.org/2000/svg" xmlns:xlink="http://www.w3.org/1999/xlink" x="0px" y="0px"
	 viewBox="0 0 217.6 152" style="enable-background:new 0 0 217.6 152;" xml:space="preserve">
<style type="text/css">
	.st0{fill:#214E9C;}
</style>
<rect x="-62.3" y="-200.2" class="st0" width="96.6" height="96.6"/>
<g>
	<path class="st0" d="M24.8,131.4H12.7l-2.6,5.9H8.4l9.6-20.8h1.5l9.6,20.8h-1.6L24.8,131.4z M24.2,130.2l-5.5-12l-5.4,12H24.2z"/>
	<path class="st0" d="M54,116.5v20.8h-1.2l-14.2-18.1v18.1H37v-20.8h1.3l14.2,18.1v-18.1H54z"/>
	<path class="st0" d="M78.3,131.4H66.2l-2.6,5.9h-1.6l9.6-20.8H73l9.6,20.8h-1.6L78.3,131.4z M77.7,130.2l-5.5-12l-5.4,12H77.7z"/>
	<path class="st0" d="M106.3,128.3c0.8,0.9,1.2,2.1,1.2,3.5c0,1.8-0.6,3.1-1.9,4.1c-1.3,1-3.2,1.4-5.7,1.4h-9.3v-20.8h8.7
		c2.3,0,4,0.5,5.3,1.4s1.9,2.2,1.9,3.9c0,1.2-0.3,2.2-0.9,3c-0.6,0.8-1.5,1.4-2.5,1.8C104.4,126.8,105.5,127.4,106.3,128.3z
		 M92,117.8v8.3h7.1c1.8,0,3.2-0.4,4.2-1.1c1-0.7,1.5-1.7,1.5-3.1c0-1.3-0.5-2.4-1.5-3.1c-1-0.7-2.4-1.1-4.2-1.1H92z M104.4,134.9
		c1-0.7,1.6-1.8,1.6-3.3s-0.5-2.5-1.6-3.2c-1-0.7-2.6-1-4.6-1H92v8.6h7.8C101.8,136,103.3,135.6,104.4,134.9z"/>
	<path class="st0" d="M117,116.5h1.5v19.4h12v1.4H117V116.5z"/>
	<path class="st0" d="M141.5,136.1c-1.6-0.9-2.9-2.2-3.9-3.8c-0.9-1.6-1.4-3.4-1.4-5.4s0.5-3.8,1.4-5.4s2.2-2.9,3.9-3.8
		s3.5-1.4,5.5-1.4c2,0,3.9,0.5,5.5,1.4c1.6,0.9,2.9,2.2,3.9,3.8c0.9,1.6,1.4,3.4,1.4,5.4s-0.5,3.8-1.4,5.4c-0.9,1.6-2.2,2.9-3.9,3.8
		c-1.6,0.9-3.5,1.4-5.5,1.4C145,137.4,143.1,137,141.5,136.1z M151.7,134.9c1.4-0.8,2.5-1.9,3.3-3.3c0.8-1.4,1.2-3,1.2-4.7
		s-0.4-3.3-1.2-4.7c-0.8-1.4-1.9-2.5-3.3-3.3s-3-1.2-4.7-1.2s-3.3,0.4-4.7,1.2s-2.5,1.9-3.3,3.3c-0.8,1.4-1.2,3-1.2,4.7
		s0.4,3.3,1.2,4.7c0.8,1.4,1.9,2.5,3.3,3.3c1.4,0.8,3,1.2,4.7,1.2S150.3,135.6,151.7,134.9z"/>
	<path class="st0" d="M170.5,136.1c-1.6-0.9-2.9-2.2-3.9-3.8s-1.4-3.4-1.4-5.4s0.5-3.8,1.4-5.4s2.2-2.9,3.9-3.8
		c1.6-0.9,3.5-1.4,5.5-1.4c1.5,0,2.9,0.2,4.2,0.7c1.3,0.5,2.3,1.2,3.2,2.2l-1,1c-1.7-1.6-3.8-2.5-6.4-2.5c-1.7,0-3.3,0.4-4.8,1.2
		c-1.4,0.8-2.5,1.9-3.4,3.3c-0.8,1.4-1.2,3-1.2,4.7s0.4,3.3,1.2,4.7c0.8,1.4,1.9,2.5,3.4,3.3c1.4,0.8,3,1.2,4.8,1.2
		c2.6,0,4.7-0.8,6.4-2.5l1,1c-0.9,1-2,1.7-3.3,2.2c-1.3,0.5-2.7,0.7-4.1,0.7C174,137.4,172.2,137,170.5,136.1z"/>
	<path class="st0" d="M198.9,127l-4.7,4.8v5.5h-1.5v-20.8h1.5v13.4l13-13.4h1.8l-9.2,9.5l9.8,11.4h-1.8L198.9,127z"/>
</g>
<g>
	<g>
		<g>
			<path class="st0" d="M81.2,53.2C62.7,79,49.3,101,49.3,101s16.6-19.8,35.2-45.6c18.6-25.8,32-47.9,32-47.9S99.8,27.4,81.2,53.2z"
				/>
			<path class="st0" d="M85.5,55.4C67.9,80,55.1,101,55.1,101s15.9-18.8,33.5-43.4s30.4-45.6,30.4-45.6S103.2,30.9,85.5,55.4z"/>
			<path class="st0" d="M89.8,57.7C73,81.1,60.9,101,60.9,101S76,83.2,92.8,59.8s28.9-43.3,28.9-43.3S106.6,34.4,89.8,57.7z"/>
			<path class="st0" d="M94.1,60c-15.9,22.1-27.4,41-27.4,41S81,84.1,96.9,62c15.9-22.1,27.4-41,27.4-41S110,37.9,94.1,60z"/>
			<path class="st0" d="M126.9,25.5c0,0-13.5,15.9-28.5,36.8S72.6,101,72.6,101s13.5-15.9,28.5-36.8
				C116.1,43.4,126.9,25.5,126.9,25.5z"/>
			<path class="st0" d="M129.5,29.9c0,0-12.7,15-26.9,34.6C88.6,84.2,78.4,101,78.4,101s12.7-15,26.9-34.6
				C119.4,46.8,129.5,29.9,129.5,29.9z"/>
			<path class="st0" d="M117.8,73c11.5-15.9,19.6-29.7,19.6-29.7s-10.4,12.1-21.9,28c-5.8,8.1-10.8,15.6-14.3,21.1h1.7
				C107,87.5,112.2,80.7,117.8,73z"/>
			<path class="st0" d="M121.9,75.2C132.5,60.5,140,47.8,140,47.8s-9.6,11.2-20.2,25.9c-5.1,7.1-9.6,13.8-12.7,18.8h1.7
				C112.4,87.9,117.1,82,121.9,75.2z"/>
			<path class="st0" d="M126.1,77.4c9.7-13.5,16.5-25.1,16.5-25.1s-8.8,10.2-18.5,23.7c-4.5,6.2-8.3,12-11.2,16.5h1.7
				C117.9,88.4,121.9,83.2,126.1,77.4z"/>
			<path class="st0" d="M130.3,79.6c8.8-12.2,15-22.8,15-22.8s-8.1,9.2-16.9,21.5c-3.8,5.3-7.1,10.3-9.7,14.2h1.8
				C123.3,88.9,126.7,84.5,130.3,79.6z"/>
			<path class="st0" d="M134.4,81.8c7.9-11,13.5-20.5,13.5-20.5s-7.3,8.3-15.2,19.3c-3.2,4.4-5.9,8.5-8.1,11.9h1.8
				C128.7,89.4,131.5,85.8,134.4,81.8z"/>
			<path class="st0" d="M138.6,84c7-9.8,11.9-18.3,11.9-18.3S144,73,137,82.8c-2.5,3.5-4.7,6.8-6.6,9.7h1.8
				C134.1,90,136.3,87.1,138.6,84z"/>
			<path class="st0" d="M142.8,86.2c6.1-8.5,10.4-16,10.4-16s-5.7,6.4-11.9,14.9c-1.9,2.6-3.6,5.1-5,7.4h1.8
				C139.5,90.6,141.1,88.4,142.8,86.2z"/>
			<path class="st0" d="M146.9,88.4c5.3-7.3,8.8-13.7,8.8-13.7s-4.9,5.4-10.2,12.7c-1.3,1.8-2.5,3.5-3.5,5.1h1.8
				C144.8,91.2,145.9,89.8,146.9,88.4z"/>
			<path class="st0" d="M151.1,90.5c4.4-6.1,7.3-11.4,7.3-11.4s-4.2,4.5-8.5,10.5c-0.7,1-1.3,1.9-2,2.8h1.8
				C150.1,91.8,150.6,91.2,151.1,90.5z"/>
			<path class="st0" d="M161,83.6c0,0-3.4,3.5-6.9,8.3c-0.1,0.2-0.3,0.4-0.4,0.5h1.7C158.8,87.7,161,83.6,161,83.6z"/>
			<path class="st0" d="M163.6,88c0,0-1.8,1.8-3.9,4.4h1.4C162.7,90,163.6,88,163.6,88z"/>
		</g>
	</g>
	<g>
		<path class="st0" d="M132.2,34.4c0,0-12,14-25.2,32.4S84.2,101,84.2,101s12-14,25.2-32.4C122.7,50.2,132.2,34.4,132.2,34.4z"/>
		<path class="st0" d="M134.8,38.9c0,0-11.2,13.1-23.5,30.2s-21.2,31.9-21.2,31.9s11.2-13.1,23.5-30.2
			C125.9,53.6,134.8,38.9,134.8,38.9z"/>
		<path class="st0" d="M101.3,92.5c-1.1,1.7-2.1,3.3-2.9,4.5h0.9c1-1.3,2.3-2.8,3.7-4.5H101.3z"/>
		<path class="st0" d="M99.3,97h-0.9c-1.6,2.6-2.5,4.1-2.5,4.1S97.2,99.6,99.3,97z"/>
		<path class="st0" d="M107.1,92.5c-1.1,1.7-2.1,3.3-2.9,4.5h0.9c1-1.3,2.3-2.8,3.7-4.5H107.1z"/>
		<path class="st0" d="M105.1,97h-0.9c-1.6,2.6-2.5,4.1-2.5,4.1S103,99.6,105.1,97z"/>
		<path class="st0" d="M111,97h-0.9c-1.6,2.6-2.5,4.1-2.5,4.1S108.9,99.6,111,97z"/>
		<path class="st0" d="M112.9,92.5c-1.1,1.7-2.1,3.3-2.9,4.5h0.9c1-1.3,2.3-2.8,3.7-4.5H112.9z"/>
		<path class="st0" d="M118.7,92.5c-1.1,1.7-2.1,3.2-2.9,4.5h1c1-1.3,2.3-2.8,3.7-4.5H118.7z"/>
		<path class="st0" d="M116.8,97h-1c-1.6,2.6-2.5,4.1-2.5,4.1S114.7,99.6,116.8,97z"/>
		<path class="st0" d="M124.6,92.5c-1.1,1.7-2.1,3.2-2.9,4.5h1c1-1.3,2.3-2.8,3.7-4.5H124.6z"/>
		<path class="st0" d="M122.7,97h-1c-1.6,2.6-2.5,4.1-2.5,4.1S120.6,99.6,122.7,97z"/>
		<path class="st0" d="M128.5,97h-1c-1.6,2.5-2.5,4.1-2.5,4.1S126.4,99.6,128.5,97z"/>
		<path class="st0" d="M130.4,92.5c-1.1,1.7-2.1,3.2-2.9,4.5h1c1-1.3,2.3-2.8,3.6-4.5H130.4z"/>
		<path class="st0" d="M136.2,92.5c-1.1,1.7-2.1,3.2-2.9,4.5h1.1c1.1-1.3,2.3-2.8,3.6-4.5H136.2z"/>
		<path class="st0" d="M134.4,97h-1.1c-1.6,2.5-2.4,4.1-2.4,4.1S132.3,99.5,134.4,97z"/>
		<path class="st0" d="M140.2,97h-1.1c-1.5,2.5-2.4,4.1-2.4,4.1S138.1,99.5,140.2,97z"/>
		<path class="st0" d="M142,92.5c-1.1,1.7-2.1,3.2-2.9,4.5h1.1c1.1-1.3,2.3-2.8,3.6-4.5H142z"/>
		<path class="st0" d="M147.9,92.5c-1.1,1.7-2.1,3.2-2.9,4.5h1.2c1.1-1.3,2.3-2.8,3.6-4.5H147.9z"/>
		<path class="st0" d="M146.1,97H145c-1.5,2.5-2.4,4.1-2.4,4.1S144,99.5,146.1,97z"/>
		<path class="st0" d="M153.7,92.5c-1.2,1.6-2.2,3.2-3,4.5h1.2c1-1.2,2.1-2.7,3.3-4.2c0.1-0.1,0.1-0.2,0.2-0.3H153.7z"/>
		<path class="st0" d="M152,97h-1.2c-1.5,2.4-2.4,4.1-2.4,4.1S149.9,99.5,152,97z"/>
		<path class="st0" d="M156.5,97c-1.5,2.4-2.3,4.1-2.3,4.1s1.7-1.6,3.7-4.1H156.5z"/>
		<path class="st0" d="M159.7,92.5c-0.4,0.5-0.9,1.1-1.3,1.7c-0.7,1-1.3,1.9-1.9,2.8h1.3c0.5-0.6,1-1.3,1.6-2
			c0.6-0.9,1.2-1.7,1.7-2.5H159.7z"/>
		<path class="st0" d="M162.3,97c-1.5,2.2-2.3,4.1-2.3,4.1s1.8-1.6,3.5-4c0-0.1,0.1-0.1,0.1-0.2H162.3z"/>
		<path class="st0" d="M162.7,96.5c-0.1,0.2-0.2,0.3-0.3,0.5h1.4c1.6-2.3,2.5-4.5,2.5-4.5S164.4,94.1,162.7,96.5z"/>
		<path class="st0" d="M167,98.8c-0.8,1.1-1.1,2.3-1.1,2.3s1.1-0.6,1.9-1.8c0.8-1.1,1.1-2.3,1.1-2.3S167.8,97.6,167,98.8z"/>
	</g>
</g>
</svg>
