<?xml version="1.0" encoding="utf-8"?>
<!-- Generator: Adobe Illustrator 22.0.1, SVG Export Plug-In . SVG Version: 6.00 Build 0)  -->
<svg version="1.1" id="Layer_1" xmlns="http://www.w3.org/2000/svg" xmlns:xlink="http://www.w3.org/1999/xlink" x="0px" y="0px"
	 viewBox="0 0 217.6 152" style="enable-background:new 0 0 217.6 152;" xml:space="preserve">
<style type="text/css">
	.st0{fill:#214E9C;}
</style>
<rect x="-62.3" y="-200.2" class="st0" width="96.6" height="96.6"/>
<g>
	<g>
		<path class="st0" d="M89.6,79.1c-0.7,0-1.5-0.2-2.2-0.5C85,77.3,84,74.4,85.2,72l19.1-37.8c1.2-2.4,4.1-3.4,6.5-2.2
			c2.4,1.2,3.4,4.1,2.2,6.5L93.9,76.4C93.1,78.1,91.3,79.1,89.6,79.1z"/>
	</g>
	<g>
		<path class="st0" d="M109.8,79.2c-0.7,0-1.5-0.2-2.2-0.5c-2.4-1.2-3.4-4.1-2.2-6.5l9-18.2c1.2-2.4,4.1-3.4,6.5-2.2
			c2.4,1.2,3.4,4.1,2.2,6.5l-9,18.2C113.3,78.2,111.6,79.2,109.8,79.2z"/>
	</g>
	<g>
		<path class="st0" d="M105,74.2"/>
	</g>
	<g>
		<circle class="st0" cx="128" cy="74.2" r="5.1"/>
	</g>
</g>
<g>
	<path class="st0" d="M43.2,108.2l-1.7,3.8h-3l7.4-16.7h3l7.4,16.7h-3l-1.7-3.8H43.2z M50.4,105.6l-3-6.9l-3,6.9H50.4z"/>
	<path class="st0" d="M71.1,95.3h2.8V112h-3.1l-9.5-12.2V112h-2.8V95.3h2.8l9.7,12.5V95.3z"/>
	<path class="st0" d="M80.9,108.2l-1.7,3.8h-3l7.4-16.7h3l7.4,16.7h-3l-1.7-3.8H80.9z M88.1,105.6l-3-6.9l-3,6.9H88.1z"/>
	<path class="st0" d="M109.5,104.8c0.6,0.7,0.9,1.6,0.9,2.8c0,1.4-0.5,2.5-1.6,3.3c-1,0.8-2.6,1.1-4.6,1.1h-7.5V95.3h7
		c1.8,0,3.2,0.4,4.2,1.1c1,0.7,1.5,1.8,1.5,3.2c0,1-0.3,1.8-0.8,2.4s-1.2,1.1-2,1.4C108,103.6,108.9,104.1,109.5,104.8z M98.1,96.3
		v6.7h5.7c1.5,0,2.6-0.3,3.4-0.8c0.8-0.6,1.2-1.4,1.2-2.5c0-1.1-0.4-1.9-1.2-2.5c-0.8-0.6-1.9-0.8-3.4-0.8H98.1z M108,110.1
		c0.8-0.6,1.3-1.4,1.3-2.6c0-1.2-0.4-2-1.3-2.6c-0.8-0.6-2.1-0.8-3.7-0.8h-6.2v6.9h6.2C105.9,111,107.2,110.7,108,110.1z"/>
	<path class="st0" d="M114.8,95.3h1.2v15.6h9.6v1.1h-10.8V95.3z"/>
	<path class="st0" d="M131.1,111c-1.3-0.7-2.4-1.8-3.1-3c-0.8-1.3-1.1-2.7-1.1-4.3c0-1.6,0.4-3,1.1-4.3c0.8-1.3,1.8-2.3,3.1-3
		c1.3-0.7,2.8-1.1,4.4-1.1c1.6,0,3.1,0.4,4.4,1.1c1.3,0.7,2.4,1.7,3.1,3c0.8,1.3,1.1,2.7,1.1,4.3c0,1.6-0.4,3.1-1.1,4.3
		c-0.8,1.3-1.8,2.3-3.1,3c-1.3,0.7-2.8,1.1-4.4,1.1C133.9,112.1,132.4,111.8,131.1,111z M139.3,110.1c1.1-0.6,2-1.5,2.7-2.6
		s1-2.4,1-3.8c0-1.4-0.3-2.6-1-3.8s-1.5-2-2.7-2.6c-1.1-0.6-2.4-1-3.8-1c-1.4,0-2.7,0.3-3.8,1c-1.1,0.6-2,1.5-2.7,2.6
		c-0.7,1.1-1,2.4-1,3.8c0,1.4,0.3,2.6,1,3.8c0.7,1.1,1.5,2,2.7,2.6c1.1,0.6,2.4,1,3.8,1C136.9,111,138.2,110.7,139.3,110.1z"/>
	<path class="st0" d="M151.1,111c-1.3-0.7-2.3-1.7-3.1-3c-0.8-1.3-1.1-2.7-1.1-4.3c0-1.6,0.4-3.1,1.1-4.3c0.8-1.3,1.8-2.3,3.1-3
		c1.3-0.7,2.8-1.1,4.4-1.1c1.2,0,2.3,0.2,3.3,0.6c1,0.4,1.9,1,2.6,1.7l-0.8,0.8c-1.3-1.3-3-2-5.1-2c-1.4,0-2.7,0.3-3.8,1
		c-1.1,0.6-2,1.5-2.7,2.6c-0.7,1.1-1,2.4-1,3.8c0,1.4,0.3,2.6,1,3.8c0.7,1.1,1.6,2,2.7,2.6c1.1,0.6,2.4,1,3.8,1c2.1,0,3.8-0.7,5.1-2
		l0.8,0.8c-0.7,0.8-1.6,1.3-2.6,1.7c-1,0.4-2.1,0.6-3.3,0.6C153.9,112.1,152.4,111.8,151.1,111z"/>
	<path class="st0" d="M170.5,103.8l-3.7,3.8v4.4h-1.2V95.3h1.2V106l10.4-10.7h1.5l-7.4,7.6l7.9,9.1h-1.5L170.5,103.8z"/>
</g>
</svg>
